<svg width="284" height="100" viewBox="0 0 284 100" fill="none" xmlns="http://www.w3.org/2000/svg">
<rect width="284" height="100" fill="#121212"/>
<path d="M95.2888 44V27.989H102.761C105.282 27.989 106.543 29.2498 106.543 31.7713V33.2332C106.543 33.7592 106.388 34.2078 106.079 34.5791L105.267 35.5536L106.241 36.3658C106.752 36.7835 107.007 37.4022 107.007 38.2221V40.2177C107.007 42.7392 105.746 44 103.225 44H95.2888ZM98.1197 41.4243H103.155C103.836 41.4243 104.176 41.0917 104.176 40.4265V37.9901C104.176 37.3249 103.836 36.9923 103.155 36.9923H98.1197V41.4243ZM98.1197 34.4166H102.691C103.372 34.4166 103.712 34.0763 103.712 33.3956V31.5625C103.712 30.8973 103.372 30.5647 102.691 30.5647H98.1197V34.4166ZM115.927 44V27.989H123.631C126.152 27.989 127.413 29.2498 127.413 31.7713V34.3934C127.413 36.3426 126.64 37.526 125.093 37.9437L127.877 43.3967L127.529 44H125.116L122.146 38.1525H118.758V44H115.927ZM118.758 35.5768H123.561C124.242 35.5768 124.582 35.2365 124.582 34.5559V31.5625C124.582 30.8973 124.242 30.5647 123.561 30.5647H118.758V35.5768ZM134.92 43.4431L139.863 27.989H144.272L149.191 43.4431L148.843 44H146.453L145.362 40.4729H138.749L137.635 44H135.292L134.92 43.4431ZM139.538 37.8973H144.597L142.276 30.5647H141.835L139.538 37.8973ZM157.181 44V27.989H160.012V44H157.181ZM169.525 44V27.989H172.611L179.712 39.4055V27.989H182.543V44H179.48L172.356 32.5835V44H169.525ZM190.536 28.5459L190.907 27.989H193.366L197.334 41.4243H197.775L201.743 27.989H204.226L204.574 28.5459L199.84 44H195.246L190.536 28.5459ZM212.547 44V27.989H215.378V44H212.547ZM223.36 28.5459L223.731 27.989H226.191L230.158 41.4243H230.599L234.567 27.989H237.05L237.398 28.5459L232.665 44H228.07L223.36 28.5459ZM245.139 40.2177V31.7713C245.139 29.2498 246.399 27.989 248.921 27.989H254.235C256.756 27.989 258.017 29.2498 258.017 31.7713V40.2177C258.017 42.7392 256.756 44 254.235 44H248.921C246.399 44 245.139 42.7392 245.139 40.2177ZM247.97 40.4265C247.97 41.0917 248.31 41.4243 248.991 41.4243H254.165C254.846 41.4243 255.186 41.0917 255.186 40.4265V31.5625C255.186 30.8973 254.846 30.5647 254.165 30.5647H248.991C248.31 30.5647 247.97 30.8973 247.97 31.5625V40.4265Z" fill="white"/>
<path d="M94.6 66.94V59.26C94.6 57.22 95.62 56.2 97.66 56.2H102.34C104.38 56.2 105.4 57.22 105.4 59.26V66.94C105.4 68.98 104.38 70 102.34 70H97.66C95.62 70 94.6 68.98 94.6 66.94ZM96.28 67.12C96.28 68.0267 96.7333 68.48 97.64 68.48H102.36C103.267 68.48 103.72 68.0267 103.72 67.12V59.08C103.72 58.1733 103.267 57.72 102.36 57.72H97.64C96.7333 57.72 96.28 58.1733 96.28 59.08V67.12ZM115.804 70V56.2H122.344C124.384 56.2 125.404 57.22 125.404 59.26V61.86C125.404 63.9 124.384 64.92 122.344 64.92H117.484V70H115.804ZM117.484 63.4H122.364C123.271 63.4 123.724 62.9467 123.724 62.04V59.08C123.724 58.1733 123.271 57.72 122.364 57.72H117.484V63.4ZM135.402 70V56.2H144.402V57.72H137.082V62H143.802V63.52H137.082V68.48H144.402V70H135.402ZM154.198 70V56.2H156.058L163.318 67.4V56.2H164.998V70H163.138L155.878 58.8V70H154.198Z" fill="#F2F2F2"/>
<path d="M175.593 70V56.2H181.933C183.973 56.2 184.993 57.22 184.993 59.26V60.64C184.993 61.0933 184.86 61.48 184.593 61.8L183.893 62.64L184.733 63.34C185.173 63.7 185.393 64.2333 185.393 64.94V66.94C185.393 68.98 184.373 70 182.333 70H175.593ZM177.273 68.48H182.353C183.26 68.48 183.713 68.0267 183.713 67.12V64.88C183.713 63.9733 183.26 63.52 182.353 63.52H177.273V68.48ZM177.273 62H181.953C182.86 62 183.313 61.5467 183.313 60.64V59.08C183.313 58.1733 182.86 57.72 181.953 57.72H177.273V62ZM195.464 70V56.2H202.004C204.044 56.2 205.064 57.22 205.064 59.26V61.46C205.064 63.1933 204.324 64.18 202.844 64.42L205.464 69.6L205.244 70H203.824L201.044 64.52H197.144V70H195.464ZM197.144 63H202.024C202.931 63 203.384 62.5467 203.384 61.64V59.08C203.384 58.1733 202.931 57.72 202.024 57.72H197.144V63ZM213.857 69.64L218.377 56.2H221.137L225.657 69.64L225.417 70H224.037L222.897 66.52H216.617L215.477 70H214.097L213.857 69.64ZM217.117 65H222.397L219.997 57.72H219.517L217.117 65ZM234.855 70V56.2H236.535V70H234.855ZM247.128 70V56.2H248.988L256.248 67.4V56.2H257.928V70H256.068L248.808 58.8V70H247.128Z" fill="#00FFB3"/>
<mask id="path-3-inside-1_5926_2409" fill="white">
<path d="M38.9713 23.8761C41.4434 22.0039 44.4614 20.9942 47.5625 21.0016C48.6335 20.9776 49.6933 21.2241 50.6437 21.7183C51.5941 22.2125 52.4046 22.9385 53 23.829C53.5954 22.9385 54.4059 22.2125 55.3563 21.7183C56.3067 21.2241 57.3665 20.9776 58.4375 21.0016C61.5386 20.9942 64.5566 22.0039 67.0287 23.8761C68.9319 25.3551 70.4 27.4032 70.9184 29.879C72.1074 29.9696 73.1949 30.4626 74.1084 31.2057C75.4931 32.3294 76.5009 34.015 77.1353 35.7984C78.1285 38.5715 78.3968 42.1058 77.3673 45.1144C77.6283 45.2377 77.8856 45.3827 78.1358 45.5494C79.1326 46.2128 79.8903 47.1625 80.4485 48.2826C81.5469 50.4757 82 53.5351 82 57.2506C82 61.3866 80.4231 64.1633 78.4221 65.8779C77.3156 66.8266 76.0098 67.5142 74.6014 67.8897C74.2389 69.9124 73.2239 72.2541 71.6325 74.2405C69.5663 76.8323 66.3617 79 62.0625 79C58.655 79 55.9435 77.115 54.1818 75.2663C53.7606 74.825 53.3659 74.3589 53 73.8708C52.6341 74.359 52.2395 74.825 51.8182 75.2663C50.0565 77.115 47.3486 79 43.9375 79C39.6383 79 36.4374 76.8323 34.3675 74.2405C32.8804 72.3938 31.8618 70.215 31.3986 67.8897C29.9902 67.5142 28.6844 66.8266 27.5779 65.8779C25.5769 64.1633 24 61.383 24 57.2506C24 53.5351 24.4567 50.472 25.5515 48.2826C26.0703 47.1841 26.8677 46.2406 27.8642 45.5458C28.1091 45.3837 28.366 45.2407 28.6328 45.1181C27.6033 42.1021 27.8715 38.5715 28.8648 35.7984C29.4991 34.015 30.5069 32.3294 31.8916 31.2057C32.8051 30.4626 33.8926 29.9732 35.0816 29.879C35.6036 27.4032 37.0681 25.3551 38.9713 23.8761ZM51.1875 30.0639V30.0276L51.1803 29.8464C51.1269 28.9014 50.9389 27.9688 50.622 27.0769C50.3964 26.4036 50.0122 25.7945 49.5019 25.3007C48.9664 24.8345 48.2717 24.593 47.5625 24.6265C45.2677 24.6186 43.0329 25.3593 41.197 26.7362C39.515 28.0448 38.5 29.8174 38.5 31.8763C38.4998 32.1633 38.4314 32.4462 38.3005 32.7016C38.1695 32.9571 37.9798 33.1778 37.7469 33.3455C37.514 33.5133 37.2446 33.6234 36.9608 33.6666C36.6771 33.7099 36.3871 33.6852 36.1148 33.5945C35.4333 33.3698 34.8243 33.4966 34.1754 34.0186C33.4649 34.5986 32.7725 35.6281 32.2759 37.0164C31.2645 39.8511 31.3696 43.2839 32.758 45.3718C32.9563 45.6692 33.0622 46.0185 33.0625 46.3759H35.7812C37.9444 46.3759 40.019 47.2352 41.5486 48.7647C43.0782 50.2943 43.9375 52.3688 43.9375 54.5319V55.7463C45.1468 56.1738 46.1661 57.0151 46.8151 58.1214C47.4641 59.2278 47.7011 60.5279 47.4842 61.7921C47.2673 63.0563 46.6104 64.2031 45.6298 65.0298C44.6491 65.8566 43.4077 66.31 42.125 66.31C40.8423 66.31 39.6009 65.8566 38.6202 65.0298C37.6396 64.2031 36.9827 63.0563 36.7658 61.7921C36.5489 60.5279 36.7859 59.2278 37.4349 58.1214C38.0839 57.0151 39.1032 56.1738 40.3125 55.7463V54.5319C40.3125 52.0307 38.2825 50.0008 35.7812 50.0008H29.4375C29.2208 50.0004 29.0059 49.9612 28.8031 49.8848L28.7923 49.9066C28.0745 51.3384 27.625 53.7163 27.625 57.2506C27.625 60.3644 28.7669 62.1188 29.9378 63.1229C31.1956 64.2032 32.5913 64.5004 33.0625 64.5004C33.5432 64.5004 34.0042 64.6914 34.3441 65.0313C34.684 65.3712 34.875 65.8322 34.875 66.3128C34.875 67.6468 35.6 69.9776 37.195 71.9786C38.7501 73.9179 40.9867 75.3751 43.9375 75.3751C45.9675 75.3751 47.7872 74.2405 49.1937 72.7652C49.8861 72.0402 50.4263 71.2898 50.7779 70.6736C50.9379 70.4003 51.075 70.1142 51.1875 69.8181V40.9385H47.2544C46.8268 42.1478 45.9855 43.1671 44.8791 43.8161C43.7728 44.465 42.4726 44.702 41.2084 44.4851C39.9441 44.2682 38.7973 43.6114 37.9706 42.6308C37.1438 41.6501 36.6904 40.4087 36.6904 39.1261C36.6904 37.8435 37.1438 36.6021 37.9706 35.6214C38.7973 34.6408 39.9441 33.984 41.2084 33.7671C42.4726 33.5502 43.7728 33.7872 44.8791 34.4361C45.9855 35.0851 46.8268 36.1044 47.2544 37.3136H51.1875V30.0639ZM54.8125 66.3092V69.8145C54.9251 70.1105 55.0621 70.3967 55.2221 70.67C55.5774 71.2862 56.1139 72.0366 56.8026 72.7615C58.2127 74.2369 60.0361 75.3715 62.0625 75.3715C65.0133 75.3715 67.2499 73.9143 68.805 71.9749C70.4 69.974 71.125 67.6432 71.125 66.3092C71.125 65.8285 71.316 65.3675 71.6559 65.0276C71.9958 64.6877 72.4568 64.4968 72.9375 64.4968C73.4087 64.4968 74.8044 64.1995 76.0622 63.1193C77.2331 62.1152 78.375 60.3608 78.375 57.247C78.375 53.7127 77.9219 51.3384 77.2077 49.9029C76.9688 49.3684 76.5939 48.9059 76.1203 48.5617C75.7121 48.3008 75.2341 48.1706 74.75 48.1883C74.4221 48.1882 74.1005 48.0991 73.8193 47.9306C73.538 47.762 73.3078 47.5204 73.153 47.2314C72.9983 46.9424 72.9248 46.6168 72.9405 46.2893C72.9562 45.9618 73.0604 45.6447 73.242 45.3718C74.634 43.2839 74.7355 39.8511 73.7241 37.0164C73.2275 35.6281 72.5351 34.595 71.8246 34.0186C71.1757 33.4966 70.5667 33.3661 69.8852 33.5945C69.6129 33.6852 69.3229 33.7099 69.0392 33.6666C68.7554 33.6234 68.486 33.5133 68.2531 33.3455C68.0202 33.1778 67.8305 32.9571 67.6995 32.7016C67.5686 32.4462 67.5002 32.1633 67.5 31.8763C67.5 29.8174 66.485 28.0448 64.7994 26.7362C62.9645 25.3601 60.7311 24.6194 58.4375 24.6265C57.7283 24.593 57.0336 24.8345 56.4981 25.3007C55.9862 25.7939 55.6008 26.4032 55.3744 27.0769C55.0293 28.0238 54.8395 29.0202 54.8125 30.0276V62.6879H57.5312C60.0325 62.6879 62.0625 60.658 62.0625 58.1568V51.5051C60.8532 51.0776 59.8339 50.2363 59.1849 49.13C58.5359 48.0236 58.2989 46.7235 58.5158 45.4593C58.7327 44.1951 59.3896 43.0483 60.3702 42.2216C61.3509 41.3948 62.5923 40.9414 63.875 40.9414C65.1577 40.9414 66.3991 41.3948 67.3798 42.2216C68.3604 43.0483 69.0173 44.1951 69.2342 45.4593C69.4511 46.7235 69.2141 48.0236 68.5651 49.13C67.9161 50.2363 66.8968 51.0776 65.6875 51.5051V58.1568C65.6875 60.3199 64.8282 62.3945 63.2986 63.924C61.769 65.4536 59.6944 66.3128 57.5312 66.3128L54.8125 66.3092ZM40.3125 39.1261C40.3125 39.6068 40.5035 40.0678 40.8434 40.4077C41.1833 40.7476 41.6443 40.9385 42.125 40.9385C42.6057 40.9385 43.0667 40.7476 43.4066 40.4077C43.7465 40.0678 43.9375 39.6068 43.9375 39.1261C43.9375 38.6454 43.7465 38.1844 43.4066 37.8445C43.0667 37.5046 42.6057 37.3136 42.125 37.3136C41.6443 37.3136 41.1833 37.5046 40.8434 37.8445C40.5035 38.1844 40.3125 38.6454 40.3125 39.1261ZM63.875 48.1883C64.3557 48.1883 64.8167 47.9974 65.1566 47.6575C65.4965 47.3176 65.6875 46.8566 65.6875 46.3759C65.6875 45.8952 65.4965 45.4342 65.1566 45.0943C64.8167 44.7544 64.3557 44.5634 63.875 44.5634C63.3943 44.5634 62.9333 44.7544 62.5934 45.0943C62.2535 45.4342 62.0625 45.8952 62.0625 46.3759C62.0625 46.8566 62.2535 47.3176 62.5934 47.6575C62.9333 47.9974 63.3943 48.1883 63.875 48.1883ZM42.125 59.063C41.6443 59.063 41.1833 59.254 40.8434 59.5939C40.5035 59.9338 40.3125 60.3948 40.3125 60.8755C40.3125 61.3562 40.5035 61.8172 40.8434 62.1571C41.1833 62.497 41.6443 62.6879 42.125 62.6879C42.6057 62.6879 43.0667 62.497 43.4066 62.1571C43.7465 61.8172 43.9375 61.3562 43.9375 60.8755C43.9375 60.3948 43.7465 59.9338 43.4066 59.5939C43.0667 59.254 42.6057 59.063 42.125 59.063Z"/>
</mask>
<path d="M38.9713 23.8761C41.4434 22.0039 44.4614 20.9942 47.5625 21.0016C48.6335 20.9776 49.6933 21.2241 50.6437 21.7183C51.5941 22.2125 52.4046 22.9385 53 23.829C53.5954 22.9385 54.4059 22.2125 55.3563 21.7183C56.3067 21.2241 57.3665 20.9776 58.4375 21.0016C61.5386 20.9942 64.5566 22.0039 67.0287 23.8761C68.9319 25.3551 70.4 27.4032 70.9184 29.879C72.1074 29.9696 73.1949 30.4626 74.1084 31.2057C75.4931 32.3294 76.5009 34.015 77.1353 35.7984C78.1285 38.5715 78.3968 42.1058 77.3673 45.1144C77.6283 45.2377 77.8856 45.3827 78.1358 45.5494C79.1326 46.2128 79.8903 47.1625 80.4485 48.2826C81.5469 50.4757 82 53.5351 82 57.2506C82 61.3866 80.4231 64.1633 78.4221 65.8779C77.3156 66.8266 76.0098 67.5142 74.6014 67.8897C74.2389 69.9124 73.2239 72.2541 71.6325 74.2405C69.5663 76.8323 66.3617 79 62.0625 79C58.655 79 55.9435 77.115 54.1818 75.2663C53.7606 74.825 53.3659 74.3589 53 73.8708C52.6341 74.359 52.2395 74.825 51.8182 75.2663C50.0565 77.115 47.3486 79 43.9375 79C39.6383 79 36.4374 76.8323 34.3675 74.2405C32.8804 72.3938 31.8618 70.215 31.3986 67.8897C29.9902 67.5142 28.6844 66.8266 27.5779 65.8779C25.5769 64.1633 24 61.383 24 57.2506C24 53.5351 24.4567 50.472 25.5515 48.2826C26.0703 47.1841 26.8677 46.2406 27.8642 45.5458C28.1091 45.3837 28.366 45.2407 28.6328 45.1181C27.6033 42.1021 27.8715 38.5715 28.8648 35.7984C29.4991 34.015 30.5069 32.3294 31.8916 31.2057C32.8051 30.4626 33.8926 29.9732 35.0816 29.879C35.6036 27.4032 37.0681 25.3551 38.9713 23.8761ZM51.1875 30.0639V30.0276L51.1803 29.8464C51.1269 28.9014 50.9389 27.9688 50.622 27.0769C50.3964 26.4036 50.0122 25.7945 49.5019 25.3007C48.9664 24.8345 48.2717 24.593 47.5625 24.6265C45.2677 24.6186 43.0329 25.3593 41.197 26.7362C39.515 28.0448 38.5 29.8174 38.5 31.8763C38.4998 32.1633 38.4314 32.4462 38.3005 32.7016C38.1695 32.9571 37.9798 33.1778 37.7469 33.3455C37.514 33.5133 37.2446 33.6234 36.9608 33.6666C36.6771 33.7099 36.3871 33.6852 36.1148 33.5945C35.4333 33.3698 34.8243 33.4966 34.1754 34.0186C33.4649 34.5986 32.7725 35.6281 32.2759 37.0164C31.2645 39.8511 31.3696 43.2839 32.758 45.3718C32.9563 45.6692 33.0622 46.0185 33.0625 46.3759H35.7812C37.9444 46.3759 40.019 47.2352 41.5486 48.7647C43.0782 50.2943 43.9375 52.3688 43.9375 54.5319V55.7463C45.1468 56.1738 46.1661 57.0151 46.8151 58.1214C47.4641 59.2278 47.7011 60.5279 47.4842 61.7921C47.2673 63.0563 46.6104 64.2031 45.6298 65.0298C44.6491 65.8566 43.4077 66.31 42.125 66.31C40.8423 66.31 39.6009 65.8566 38.6202 65.0298C37.6396 64.2031 36.9827 63.0563 36.7658 61.7921C36.5489 60.5279 36.7859 59.2278 37.4349 58.1214C38.0839 57.0151 39.1032 56.1738 40.3125 55.7463V54.5319C40.3125 52.0307 38.2825 50.0008 35.7812 50.0008H29.4375C29.2208 50.0004 29.0059 49.9612 28.8031 49.8848L28.7923 49.9066C28.0745 51.3384 27.625 53.7163 27.625 57.2506C27.625 60.3644 28.7669 62.1188 29.9378 63.1229C31.1956 64.2032 32.5913 64.5004 33.0625 64.5004C33.5432 64.5004 34.0042 64.6914 34.3441 65.0313C34.684 65.3712 34.875 65.8322 34.875 66.3128C34.875 67.6468 35.6 69.9776 37.195 71.9786C38.7501 73.9179 40.9867 75.3751 43.9375 75.3751C45.9675 75.3751 47.7872 74.2405 49.1937 72.7652C49.8861 72.0402 50.4263 71.2898 50.7779 70.6736C50.9379 70.4003 51.075 70.1142 51.1875 69.8181V40.9385H47.2544C46.8268 42.1478 45.9855 43.1671 44.8791 43.8161C43.7728 44.465 42.4726 44.702 41.2084 44.4851C39.9441 44.2682 38.7973 43.6114 37.9706 42.6308C37.1438 41.6501 36.6904 40.4087 36.6904 39.1261C36.6904 37.8435 37.1438 36.6021 37.9706 35.6214C38.7973 34.6408 39.9441 33.984 41.2084 33.7671C42.4726 33.5502 43.7728 33.7872 44.8791 34.4361C45.9855 35.0851 46.8268 36.1044 47.2544 37.3136H51.1875V30.0639ZM54.8125 66.3092V69.8145C54.9251 70.1105 55.0621 70.3967 55.2221 70.67C55.5774 71.2862 56.1139 72.0366 56.8026 72.7615C58.2127 74.2369 60.0361 75.3715 62.0625 75.3715C65.0133 75.3715 67.2499 73.9143 68.805 71.9749C70.4 69.974 71.125 67.6432 71.125 66.3092C71.125 65.8285 71.316 65.3675 71.6559 65.0276C71.9958 64.6877 72.4568 64.4968 72.9375 64.4968C73.4087 64.4968 74.8044 64.1995 76.0622 63.1193C77.2331 62.1152 78.375 60.3608 78.375 57.247C78.375 53.7127 77.9219 51.3384 77.2077 49.9029C76.9688 49.3684 76.5939 48.9059 76.1203 48.5617C75.7121 48.3008 75.2341 48.1706 74.75 48.1883C74.4221 48.1882 74.1005 48.0991 73.8193 47.9306C73.538 47.762 73.3078 47.5204 73.153 47.2314C72.9983 46.9424 72.9248 46.6168 72.9405 46.2893C72.9562 45.9618 73.0604 45.6447 73.242 45.3718C74.634 43.2839 74.7355 39.8511 73.7241 37.0164C73.2275 35.6281 72.5351 34.595 71.8246 34.0186C71.1757 33.4966 70.5667 33.3661 69.8852 33.5945C69.6129 33.6852 69.3229 33.7099 69.0392 33.6666C68.7554 33.6234 68.486 33.5133 68.2531 33.3455C68.0202 33.1778 67.8305 32.9571 67.6995 32.7016C67.5686 32.4462 67.5002 32.1633 67.5 31.8763C67.5 29.8174 66.485 28.0448 64.7994 26.7362C62.9645 25.3601 60.7311 24.6194 58.4375 24.6265C57.7283 24.593 57.0336 24.8345 56.4981 25.3007C55.9862 25.7939 55.6008 26.4032 55.3744 27.0769C55.0293 28.0238 54.8395 29.0202 54.8125 30.0276V62.6879H57.5312C60.0325 62.6879 62.0625 60.658 62.0625 58.1568V51.5051C60.8532 51.0776 59.8339 50.2363 59.1849 49.13C58.5359 48.0236 58.2989 46.7235 58.5158 45.4593C58.7327 44.1951 59.3896 43.0483 60.3702 42.2216C61.3509 41.3948 62.5923 40.9414 63.875 40.9414C65.1577 40.9414 66.3991 41.3948 67.3798 42.2216C68.3604 43.0483 69.0173 44.1951 69.2342 45.4593C69.4511 46.7235 69.2141 48.0236 68.5651 49.13C67.9161 50.2363 66.8968 51.0776 65.6875 51.5051V58.1568C65.6875 60.3199 64.8282 62.3945 63.2986 63.924C61.769 65.4536 59.6944 66.3128 57.5312 66.3128L54.8125 66.3092ZM40.3125 39.1261C40.3125 39.6068 40.5035 40.0678 40.8434 40.4077C41.1833 40.7476 41.6443 40.9385 42.125 40.9385C42.6057 40.9385 43.0667 40.7476 43.4066 40.4077C43.7465 40.0678 43.9375 39.6068 43.9375 39.1261C43.9375 38.6454 43.7465 38.1844 43.4066 37.8445C43.0667 37.5046 42.6057 37.3136 42.125 37.3136C41.6443 37.3136 41.1833 37.5046 40.8434 37.8445C40.5035 38.1844 40.3125 38.6454 40.3125 39.1261ZM63.875 48.1883C64.3557 48.1883 64.8167 47.9974 65.1566 47.6575C65.4965 47.3176 65.6875 46.8566 65.6875 46.3759C65.6875 45.8952 65.4965 45.4342 65.1566 45.0943C64.8167 44.7544 64.3557 44.5634 63.875 44.5634C63.3943 44.5634 62.9333 44.7544 62.5934 45.0943C62.2535 45.4342 62.0625 45.8952 62.0625 46.3759C62.0625 46.8566 62.2535 47.3176 62.5934 47.6575C62.9333 47.9974 63.3943 48.1883 63.875 48.1883ZM42.125 59.063C41.6443 59.063 41.1833 59.254 40.8434 59.5939C40.5035 59.9338 40.3125 60.3948 40.3125 60.8755C40.3125 61.3562 40.5035 61.8172 40.8434 62.1571C41.1833 62.497 41.6443 62.6879 42.125 62.6879C42.6057 62.6879 43.0667 62.497 43.4066 62.1571C43.7465 61.8172 43.9375 61.3562 43.9375 60.8755C43.9375 60.3948 43.7465 59.9338 43.4066 59.5939C43.0667 59.254 42.6057 59.063 42.125 59.063Z" fill="#00FFB3" stroke="black" mask="url(#path-3-inside-1_5926_2409)"/>
</svg>
